<mxfile host="Electron" modified="2024-01-20T09:58:55.598Z" agent="Mozilla/5.0 (X11; Linux x86_64) AppleWebKit/537.36 (KHTML, like Gecko) draw.io/22.1.21 Chrome/120.0.6099.109 Electron/28.1.0 Safari/537.36" etag="ENZwfuEwZ-R84dWiyPgk" version="22.1.21" type="device">
  <diagram name="Page-1" id="zR7LsNewzfryzFqCTl4k">
    <mxGraphModel dx="1666" dy="2187" grid="1" gridSize="10" guides="1" tooltips="1" connect="1" arrows="1" fold="1" page="1" pageScale="1" pageWidth="850" pageHeight="1100" math="0" shadow="0">
      <root>
        <mxCell id="0" />
        <mxCell id="1" style="locked=1;" parent="0" />
        <mxCell id="vf9TmU0PU9OOiWveSIoE-2" value="" style="rounded=1;whiteSpace=wrap;html=1;fillColor=#F0F0F0;fontColor=#333333;strokeColor=none;align=left;verticalAlign=top;fontStyle=1;fontSize=18;spacingTop=5;spacing=0;spacingLeft=10;arcSize=3;" parent="1" vertex="1">
          <mxGeometry x="300" y="-400" width="240" height="170" as="geometry" />
        </mxCell>
        <mxCell id="GzmpIsJMWXtsvFWi_bjF-13" value="" style="rounded=1;whiteSpace=wrap;html=1;fillColor=#F0F0F0;fontColor=#333333;strokeColor=none;align=left;verticalAlign=top;fontStyle=1;fontSize=18;spacingTop=5;spacing=0;spacingLeft=10;arcSize=3;" parent="1" vertex="1">
          <mxGeometry x="520" y="240" width="360" height="360" as="geometry" />
        </mxCell>
        <mxCell id="GzmpIsJMWXtsvFWi_bjF-1" value="" style="rounded=1;whiteSpace=wrap;html=1;fillColor=#F0F0F0;fontColor=#333333;strokeColor=none;align=left;verticalAlign=top;fontStyle=1;fontSize=18;spacingTop=5;spacing=0;spacingLeft=10;arcSize=3;" parent="1" vertex="1">
          <mxGeometry x="80" y="240" width="360" height="360" as="geometry" />
        </mxCell>
        <mxCell id="GzmpIsJMWXtsvFWi_bjF-21" value="" style="rounded=1;whiteSpace=wrap;html=1;fillColor=#F0F0F0;fontColor=#333333;strokeColor=none;align=left;verticalAlign=top;fontStyle=1;fontSize=18;spacingTop=5;spacing=0;spacingLeft=10;arcSize=3;" parent="1" vertex="1">
          <mxGeometry x="960" y="240" width="360" height="360" as="geometry" />
        </mxCell>
        <mxCell id="GzmpIsJMWXtsvFWi_bjF-44" value="&lt;span style=&quot;font-weight: normal;&quot;&gt;&lt;br&gt;&lt;/span&gt;" style="rounded=1;whiteSpace=wrap;html=1;fillColor=#ffe6cc;strokeColor=none;align=left;verticalAlign=top;fontStyle=1;fontSize=18;spacingTop=5;spacing=0;spacingLeft=10;arcSize=8;fillStyle=auto;" parent="1" vertex="1">
          <mxGeometry x="320" width="280" height="140" as="geometry" />
        </mxCell>
        <mxCell id="GzmpIsJMWXtsvFWi_bjF-45" value="" style="rounded=1;whiteSpace=wrap;html=1;fillColor=#ffe6cc;strokeColor=none;align=left;verticalAlign=top;fontStyle=1;fontSize=18;spacingTop=5;spacing=0;spacingLeft=10;arcSize=8;fillStyle=auto;" parent="1" vertex="1">
          <mxGeometry x="800" width="280" height="140" as="geometry" />
        </mxCell>
        <mxCell id="GzmpIsJMWXtsvFWi_bjF-86" value="" style="rounded=1;whiteSpace=wrap;html=1;fillColor=#F0F0F0;fontColor=#333333;strokeColor=none;align=left;verticalAlign=top;fontStyle=1;fontSize=18;spacingTop=5;spacing=0;spacingLeft=10;arcSize=3;" parent="1" vertex="1">
          <mxGeometry x="580" y="-400" width="240" height="170" as="geometry" />
        </mxCell>
        <mxCell id="GzmpIsJMWXtsvFWi_bjF-92" value="" style="rounded=1;whiteSpace=wrap;html=1;fillColor=#F0F0F0;fontColor=#333333;strokeColor=none;align=left;verticalAlign=top;fontStyle=1;fontSize=18;spacingTop=5;spacing=0;spacingLeft=10;arcSize=3;" parent="1" vertex="1">
          <mxGeometry x="860" y="-400" width="240" height="170" as="geometry" />
        </mxCell>
        <mxCell id="vf9TmU0PU9OOiWveSIoE-3" value="sketch" style="" parent="0" />
        <mxCell id="aqufaVc2B7-pRiZ18ils-15" style="edgeStyle=orthogonalEdgeStyle;shape=connector;rounded=0;sketch=1;jiggle=2;curveFitting=1;jumpStyle=arc;jumpSize=10;orthogonalLoop=1;jettySize=auto;html=1;exitX=0.5;exitY=1;exitDx=0;exitDy=0;entryX=0.5;entryY=0;entryDx=0;entryDy=0;labelBackgroundColor=default;strokeColor=#999999;align=center;verticalAlign=middle;fontFamily=Helvetica;fontSize=11;fontColor=default;endArrow=block;endFill=1;dashed=1;dashPattern=12 12;" edge="1" parent="vf9TmU0PU9OOiWveSIoE-3" source="aqufaVc2B7-pRiZ18ils-12" target="vf9TmU0PU9OOiWveSIoE-31">
          <mxGeometry relative="1" as="geometry" />
        </mxCell>
        <mxCell id="vf9TmU0PU9OOiWveSIoE-73" value="Control plane node&lt;br&gt;&lt;span style=&quot;font-weight: normal;&quot;&gt;172.16.0.103&lt;/span&gt;" style="rounded=1;whiteSpace=wrap;html=1;fillColor=#f5f5f5;fontColor=#333333;strokeColor=#666666;align=left;verticalAlign=top;fontStyle=1;fontSize=18;spacingTop=5;spacing=0;spacingLeft=10;arcSize=3;sketch=1;curveFitting=1;jiggle=2;" parent="vf9TmU0PU9OOiWveSIoE-3" vertex="1">
          <mxGeometry x="960" y="240" width="360" height="360" as="geometry" />
        </mxCell>
        <mxCell id="vf9TmU0PU9OOiWveSIoE-72" value="Control plane node&lt;br&gt;&lt;span style=&quot;font-weight: normal;&quot;&gt;172.16.0.101&lt;/span&gt;" style="rounded=1;whiteSpace=wrap;html=1;fillColor=#f5f5f5;fontColor=#333333;strokeColor=#666666;align=left;verticalAlign=top;fontStyle=1;fontSize=18;spacingTop=5;spacing=0;spacingLeft=10;arcSize=3;sketch=1;curveFitting=1;jiggle=2;" parent="vf9TmU0PU9OOiWveSIoE-3" vertex="1">
          <mxGeometry x="80" y="240" width="360" height="360" as="geometry" />
        </mxCell>
        <mxCell id="vf9TmU0PU9OOiWveSIoE-71" value="Control plane node&lt;br&gt;&lt;span style=&quot;font-weight: normal;&quot;&gt;172.16.0.102&lt;/span&gt;" style="rounded=1;whiteSpace=wrap;html=1;fillColor=#f5f5f5;fontColor=#333333;strokeColor=#666666;align=left;verticalAlign=top;fontStyle=1;fontSize=18;spacingTop=5;spacing=0;spacingLeft=10;arcSize=3;sketch=1;curveFitting=1;jiggle=2;" parent="vf9TmU0PU9OOiWveSIoE-3" vertex="1">
          <mxGeometry x="520" y="240" width="360" height="360" as="geometry" />
        </mxCell>
        <mxCell id="vf9TmU0PU9OOiWveSIoE-74" value="" style="rounded=0;whiteSpace=wrap;html=1;fillColor=#DCF0DB;strokeColor=none;dashed=1;verticalAlign=bottom;fontSize=20;spacingBottom=10;perimeterSpacing=2;dashPattern=12 12;glass=0;opacity=80;" parent="vf9TmU0PU9OOiWveSIoE-3" vertex="1">
          <mxGeometry x="90" y="500" width="1220" height="120" as="geometry" />
        </mxCell>
        <mxCell id="vf9TmU0PU9OOiWveSIoE-9" value="stacked etcd cluster" style="rounded=0;whiteSpace=wrap;html=1;fillColor=#d5e8d4;strokeColor=default;dashed=1;verticalAlign=bottom;fontSize=20;spacingBottom=10;perimeterSpacing=2;dashPattern=12 12;glass=0;sketch=1;curveFitting=1;jiggle=2;" parent="vf9TmU0PU9OOiWveSIoE-3" vertex="1">
          <mxGeometry x="90" y="500" width="1220" height="120" as="geometry" />
        </mxCell>
        <mxCell id="vf9TmU0PU9OOiWveSIoE-45" value="Worker node&lt;br&gt;&lt;span style=&quot;font-weight: normal;&quot;&gt;172.16.0.201&lt;/span&gt;" style="rounded=1;whiteSpace=wrap;html=1;fillColor=#f5f5f5;fontColor=#333333;strokeColor=#666666;align=left;verticalAlign=top;fontStyle=1;fontSize=18;spacingTop=5;spacing=0;spacingLeft=10;arcSize=3;sketch=1;curveFitting=1;jiggle=2;" parent="vf9TmU0PU9OOiWveSIoE-3" vertex="1">
          <mxGeometry x="299.99" y="-400" width="240" height="170" as="geometry" />
        </mxCell>
        <mxCell id="vf9TmU0PU9OOiWveSIoE-10" value="apiserver" style="rounded=0;whiteSpace=wrap;html=1;fillColor=#98BAE6;strokeColor=default;fontSize=20;sketch=1;curveFitting=1;jiggle=2;" parent="vf9TmU0PU9OOiWveSIoE-3" vertex="1">
          <mxGeometry x="120" y="320" width="280" height="60" as="geometry" />
        </mxCell>
        <mxCell id="vf9TmU0PU9OOiWveSIoE-11" value="controller-manager" style="rounded=0;whiteSpace=wrap;html=1;fillColor=#dae8fc;strokeColor=default;fontSize=20;sketch=1;curveFitting=1;jiggle=2;" parent="vf9TmU0PU9OOiWveSIoE-3" vertex="1">
          <mxGeometry x="120" y="380" width="280" height="60" as="geometry" />
        </mxCell>
        <mxCell id="vf9TmU0PU9OOiWveSIoE-12" value="scheduler" style="rounded=0;whiteSpace=wrap;html=1;fillColor=#dae8fc;strokeColor=default;fontSize=20;sketch=1;curveFitting=1;jiggle=2;" parent="vf9TmU0PU9OOiWveSIoE-3" vertex="1">
          <mxGeometry x="120" y="440" width="280" height="60" as="geometry" />
        </mxCell>
        <mxCell id="vf9TmU0PU9OOiWveSIoE-13" style="edgeStyle=orthogonalEdgeStyle;rounded=0;orthogonalLoop=1;jettySize=auto;html=1;exitX=1;exitY=0.5;exitDx=0;exitDy=0;entryX=1;entryY=0.5;entryDx=0;entryDy=0;startArrow=block;startFill=1;sketch=1;curveFitting=1;jiggle=2;endArrow=block;endFill=1;" parent="vf9TmU0PU9OOiWveSIoE-3" source="vf9TmU0PU9OOiWveSIoE-60" target="vf9TmU0PU9OOiWveSIoE-10" edge="1">
          <mxGeometry relative="1" as="geometry" />
        </mxCell>
        <mxCell id="vf9TmU0PU9OOiWveSIoE-14" value="apiserver" style="rounded=0;whiteSpace=wrap;html=1;fillColor=#98BAE6;strokeColor=default;fontSize=20;sketch=1;curveFitting=1;jiggle=2;" parent="vf9TmU0PU9OOiWveSIoE-3" vertex="1">
          <mxGeometry x="560" y="320" width="280" height="60" as="geometry" />
        </mxCell>
        <mxCell id="vf9TmU0PU9OOiWveSIoE-15" value="controller-manager" style="rounded=0;whiteSpace=wrap;html=1;fillColor=#dae8fc;strokeColor=default;fontSize=20;sketch=1;curveFitting=1;jiggle=2;" parent="vf9TmU0PU9OOiWveSIoE-3" vertex="1">
          <mxGeometry x="560" y="380" width="280" height="60" as="geometry" />
        </mxCell>
        <mxCell id="vf9TmU0PU9OOiWveSIoE-16" value="scheduler" style="rounded=0;whiteSpace=wrap;html=1;fillColor=#dae8fc;strokeColor=default;fontSize=20;sketch=1;curveFitting=1;jiggle=2;" parent="vf9TmU0PU9OOiWveSIoE-3" vertex="1">
          <mxGeometry x="560" y="440" width="280" height="60" as="geometry" />
        </mxCell>
        <mxCell id="vf9TmU0PU9OOiWveSIoE-17" style="edgeStyle=orthogonalEdgeStyle;rounded=0;orthogonalLoop=1;jettySize=auto;html=1;exitX=1;exitY=0.5;exitDx=0;exitDy=0;entryX=1;entryY=0.5;entryDx=0;entryDy=0;startArrow=block;startFill=1;endArrow=block;sketch=1;curveFitting=1;jiggle=2;endFill=1;" parent="vf9TmU0PU9OOiWveSIoE-3" source="vf9TmU0PU9OOiWveSIoE-62" target="vf9TmU0PU9OOiWveSIoE-14" edge="1">
          <mxGeometry relative="1" as="geometry" />
        </mxCell>
        <mxCell id="vf9TmU0PU9OOiWveSIoE-18" value="apiserver" style="rounded=0;whiteSpace=wrap;html=1;fillColor=#98BAE6;strokeColor=default;fontSize=20;sketch=1;curveFitting=1;jiggle=2;" parent="vf9TmU0PU9OOiWveSIoE-3" vertex="1">
          <mxGeometry x="1000" y="320" width="280" height="60" as="geometry" />
        </mxCell>
        <mxCell id="vf9TmU0PU9OOiWveSIoE-19" value="controller-manager" style="rounded=0;whiteSpace=wrap;html=1;fillColor=#dae8fc;strokeColor=default;fontSize=20;sketch=1;curveFitting=1;jiggle=2;" parent="vf9TmU0PU9OOiWveSIoE-3" vertex="1">
          <mxGeometry x="1000" y="380" width="280" height="60" as="geometry" />
        </mxCell>
        <mxCell id="vf9TmU0PU9OOiWveSIoE-20" value="scheduler" style="rounded=0;whiteSpace=wrap;html=1;fillColor=#dae8fc;strokeColor=default;fontSize=20;sketch=1;curveFitting=1;jiggle=2;" parent="vf9TmU0PU9OOiWveSIoE-3" vertex="1">
          <mxGeometry x="1000" y="440" width="280" height="60" as="geometry" />
        </mxCell>
        <mxCell id="vf9TmU0PU9OOiWveSIoE-21" style="edgeStyle=orthogonalEdgeStyle;rounded=0;orthogonalLoop=1;jettySize=auto;html=1;exitX=1;exitY=0.5;exitDx=0;exitDy=0;entryX=1;entryY=0.5;entryDx=0;entryDy=0;startArrow=block;startFill=1;endArrow=block;sketch=1;curveFitting=1;jiggle=2;endFill=1;" parent="vf9TmU0PU9OOiWveSIoE-3" source="vf9TmU0PU9OOiWveSIoE-64" target="vf9TmU0PU9OOiWveSIoE-18" edge="1">
          <mxGeometry relative="1" as="geometry" />
        </mxCell>
        <mxCell id="vf9TmU0PU9OOiWveSIoE-22" style="edgeStyle=orthogonalEdgeStyle;rounded=0;orthogonalLoop=1;jettySize=auto;html=1;exitX=1;exitY=0.25;exitDx=0;exitDy=0;entryX=0;entryY=0.25;entryDx=0;entryDy=0;startArrow=block;startFill=1;strokeColor=#999999;sketch=1;curveFitting=1;jiggle=2;elbow=vertical;curved=1;dashed=1;dashPattern=12 12;endArrow=block;endFill=1;fillColor=#f5f5f5;" parent="vf9TmU0PU9OOiWveSIoE-3" source="vf9TmU0PU9OOiWveSIoE-32" target="aqufaVc2B7-pRiZ18ils-20" edge="1">
          <mxGeometry relative="1" as="geometry" />
        </mxCell>
        <mxCell id="vf9TmU0PU9OOiWveSIoE-23" value="&amp;nbsp;VIP 172.16.0.100&amp;nbsp;" style="edgeLabel;html=1;align=center;verticalAlign=middle;resizable=0;points=[];spacing=5;spacingTop=5;spacingLeft=5;spacingBottom=5;spacingRight=5;fontSize=16;fontColor=#999999;" parent="vf9TmU0PU9OOiWveSIoE-22" vertex="1" connectable="0">
          <mxGeometry relative="1" as="geometry">
            <mxPoint as="offset" />
          </mxGeometry>
        </mxCell>
        <mxCell id="vf9TmU0PU9OOiWveSIoE-24" style="edgeStyle=orthogonalEdgeStyle;rounded=0;orthogonalLoop=1;jettySize=auto;html=1;exitX=0.5;exitY=1;exitDx=0;exitDy=0;entryX=0.25;entryY=0;entryDx=0;entryDy=0;jumpStyle=arc;fillColor=#dae8fc;strokeColor=#6C8EBF;strokeWidth=1;sketch=1;curveFitting=1;jiggle=2;jumpSize=10;endArrow=block;endFill=1;" parent="vf9TmU0PU9OOiWveSIoE-3" source="vf9TmU0PU9OOiWveSIoE-27" edge="1">
          <mxGeometry relative="1" as="geometry">
            <Array as="points">
              <mxPoint x="460" y="170" />
              <mxPoint x="170" y="170" />
            </Array>
            <mxPoint x="170" y="240" as="targetPoint" />
          </mxGeometry>
        </mxCell>
        <mxCell id="vf9TmU0PU9OOiWveSIoE-25" style="edgeStyle=orthogonalEdgeStyle;rounded=0;orthogonalLoop=1;jettySize=auto;html=1;exitX=0.5;exitY=1;exitDx=0;exitDy=0;entryX=0.25;entryY=0;entryDx=0;entryDy=0;jumpStyle=arc;fillColor=#dae8fc;strokeColor=#6C8EBF;strokeWidth=1;sketch=1;curveFitting=1;jiggle=2;jumpSize=15;endArrow=block;endFill=1;" parent="vf9TmU0PU9OOiWveSIoE-3" source="vf9TmU0PU9OOiWveSIoE-27" edge="1">
          <mxGeometry relative="1" as="geometry">
            <Array as="points">
              <mxPoint x="460" y="170" />
              <mxPoint x="610" y="170" />
            </Array>
            <mxPoint x="610" y="240" as="targetPoint" />
          </mxGeometry>
        </mxCell>
        <mxCell id="vf9TmU0PU9OOiWveSIoE-26" style="edgeStyle=orthogonalEdgeStyle;rounded=0;orthogonalLoop=1;jettySize=auto;html=1;exitX=0.5;exitY=1;exitDx=0;exitDy=0;entryX=0.25;entryY=0;entryDx=0;entryDy=0;jumpStyle=arc;fillColor=#dae8fc;strokeColor=#6C8EBF;strokeWidth=1;sketch=1;curveFitting=1;jiggle=2;jumpSize=10;endArrow=block;endFill=1;" parent="vf9TmU0PU9OOiWveSIoE-3" source="vf9TmU0PU9OOiWveSIoE-27" edge="1">
          <mxGeometry relative="1" as="geometry">
            <Array as="points">
              <mxPoint x="460" y="170" />
              <mxPoint x="1050" y="170" />
            </Array>
            <mxPoint x="1050" y="240" as="targetPoint" />
          </mxGeometry>
        </mxCell>
        <mxCell id="aqufaVc2B7-pRiZ18ils-1" style="edgeStyle=orthogonalEdgeStyle;rounded=0;orthogonalLoop=1;jettySize=auto;html=1;exitX=1;exitY=0.75;exitDx=0;exitDy=0;entryX=0;entryY=0.75;entryDx=0;entryDy=0;sketch=1;curveFitting=1;jiggle=2;startArrow=block;startFill=1;endArrow=block;endFill=1;dashed=1;dashPattern=12 12;fillColor=#f5f5f5;strokeColor=#999999;curved=1;" edge="1" parent="vf9TmU0PU9OOiWveSIoE-3" source="vf9TmU0PU9OOiWveSIoE-32" target="aqufaVc2B7-pRiZ18ils-20">
          <mxGeometry relative="1" as="geometry" />
        </mxCell>
        <mxCell id="aqufaVc2B7-pRiZ18ils-3" value="&amp;nbsp;Health check&amp;nbsp;" style="edgeLabel;html=1;align=center;verticalAlign=middle;resizable=0;points=[];fontSize=16;fontColor=#999999;spacing=5;spacingTop=5;spacingLeft=5;spacingBottom=5;spacingRight=5;" vertex="1" connectable="0" parent="aqufaVc2B7-pRiZ18ils-1">
          <mxGeometry relative="1" as="geometry">
            <mxPoint y="25" as="offset" />
          </mxGeometry>
        </mxCell>
        <mxCell id="vf9TmU0PU9OOiWveSIoE-27" value="LB1 - Active&lt;br&gt;&lt;span style=&quot;font-size: 16px;&quot;&gt;&lt;span style=&quot;font-weight: normal;&quot;&gt;172.16.0.51&lt;/span&gt;&lt;br&gt;VIP 172.16.0.100&lt;br&gt;&lt;/span&gt;" style="rounded=1;whiteSpace=wrap;html=1;fillColor=#FFF1E0;strokeColor=#d79b00;align=left;verticalAlign=top;fontStyle=1;fontSize=18;spacingTop=5;spacing=0;spacingLeft=10;arcSize=8;sketch=1;curveFitting=1;jiggle=2;" parent="vf9TmU0PU9OOiWveSIoE-3" vertex="1">
          <mxGeometry x="320" width="280" height="140" as="geometry" />
        </mxCell>
        <mxCell id="vf9TmU0PU9OOiWveSIoE-28" style="edgeStyle=orthogonalEdgeStyle;rounded=0;orthogonalLoop=1;jettySize=auto;html=1;exitX=0.5;exitY=1;exitDx=0;exitDy=0;entryX=0.75;entryY=0;entryDx=0;entryDy=0;jumpStyle=arc;fillColor=#d5e8d4;strokeColor=#82b366;strokeWidth=1;sketch=1;curveFitting=1;jiggle=2;jumpSize=15;endArrow=block;endFill=1;" parent="vf9TmU0PU9OOiWveSIoE-3" source="vf9TmU0PU9OOiWveSIoE-31" edge="1">
          <mxGeometry relative="1" as="geometry">
            <Array as="points">
              <mxPoint x="940" y="200" />
              <mxPoint x="1230" y="200" />
            </Array>
            <mxPoint x="1230" y="240" as="targetPoint" />
          </mxGeometry>
        </mxCell>
        <mxCell id="vf9TmU0PU9OOiWveSIoE-29" style="edgeStyle=orthogonalEdgeStyle;rounded=0;orthogonalLoop=1;jettySize=auto;html=1;exitX=0.5;exitY=1;exitDx=0;exitDy=0;entryX=0.75;entryY=0;entryDx=0;entryDy=0;jumpStyle=arc;fillColor=#d5e8d4;strokeColor=#82b366;strokeWidth=1;sketch=1;curveFitting=1;jiggle=2;jumpSize=15;endArrow=block;endFill=1;" parent="vf9TmU0PU9OOiWveSIoE-3" source="vf9TmU0PU9OOiWveSIoE-31" edge="1">
          <mxGeometry relative="1" as="geometry">
            <Array as="points">
              <mxPoint x="940" y="200" />
              <mxPoint x="790" y="200" />
            </Array>
            <mxPoint x="790" y="240" as="targetPoint" />
          </mxGeometry>
        </mxCell>
        <mxCell id="vf9TmU0PU9OOiWveSIoE-30" style="edgeStyle=orthogonalEdgeStyle;rounded=0;orthogonalLoop=1;jettySize=auto;html=1;exitX=0.5;exitY=1;exitDx=0;exitDy=0;entryX=0.75;entryY=0;entryDx=0;entryDy=0;jumpStyle=arc;fillColor=#d5e8d4;strokeColor=#82b366;strokeWidth=1;sketch=1;curveFitting=1;jiggle=2;jumpSize=15;endArrow=block;endFill=1;" parent="vf9TmU0PU9OOiWveSIoE-3" source="vf9TmU0PU9OOiWveSIoE-31" edge="1">
          <mxGeometry relative="1" as="geometry">
            <Array as="points">
              <mxPoint x="940" y="200" />
              <mxPoint x="350" y="200" />
            </Array>
            <mxPoint x="350" y="240" as="targetPoint" />
          </mxGeometry>
        </mxCell>
        <mxCell id="vf9TmU0PU9OOiWveSIoE-31" value="LB2 - Passive&lt;br&gt;&lt;span style=&quot;font-weight: normal;&quot;&gt;&lt;font style=&quot;font-size: 16px;&quot;&gt;172.16.0.52&lt;/font&gt;&lt;/span&gt;" style="rounded=1;whiteSpace=wrap;html=1;fillColor=#FFF1E0;strokeColor=#d79b00;align=right;verticalAlign=top;fontStyle=1;fontSize=18;spacingTop=5;spacing=0;spacingLeft=10;arcSize=8;sketch=1;curveFitting=1;jiggle=2;spacingRight=10;" parent="vf9TmU0PU9OOiWveSIoE-3" vertex="1">
          <mxGeometry x="800" width="280" height="140" as="geometry" />
        </mxCell>
        <mxCell id="vf9TmU0PU9OOiWveSIoE-32" value="keepalived" style="rounded=0;whiteSpace=wrap;html=1;fillColor=#FFF9A8;strokeColor=#d6b656;sketch=1;curveFitting=1;jiggle=2;" parent="vf9TmU0PU9OOiWveSIoE-3" vertex="1">
          <mxGeometry x="500" y="20" width="100" height="80" as="geometry" />
        </mxCell>
        <mxCell id="vf9TmU0PU9OOiWveSIoE-34" value="HAproxy" style="rounded=0;whiteSpace=wrap;html=1;fillColor=#B3BECF;strokeColor=#6c8ebf;sketch=1;curveFitting=1;jiggle=2;" parent="vf9TmU0PU9OOiWveSIoE-3" vertex="1">
          <mxGeometry x="390" y="110" width="140" height="30" as="geometry" />
        </mxCell>
        <mxCell id="vf9TmU0PU9OOiWveSIoE-35" value="HAproxy" style="rounded=0;whiteSpace=wrap;html=1;fillColor=#A5E382;strokeColor=#82b366;sketch=1;curveFitting=1;jiggle=2;" parent="vf9TmU0PU9OOiWveSIoE-3" vertex="1">
          <mxGeometry x="870" y="110" width="140" height="30" as="geometry" />
        </mxCell>
        <mxCell id="vf9TmU0PU9OOiWveSIoE-39" value="" style="aspect=fixed;sketch=0;html=1;dashed=0;whitespace=wrap;fillColor=#2875E2;strokeColor=#ffffff;points=[[0.005,0.63,0],[0.1,0.2,0],[0.9,0.2,0],[0.5,0,0],[0.995,0.63,0],[0.72,0.99,0],[0.5,1,0],[0.28,0.99,0]];shape=mxgraph.kubernetes.icon2;kubernetesLabel=1;prIcon=control_plane" parent="vf9TmU0PU9OOiWveSIoE-3" vertex="1">
          <mxGeometry x="380" y="250" width="50" height="48" as="geometry" />
        </mxCell>
        <mxCell id="vf9TmU0PU9OOiWveSIoE-40" value="" style="aspect=fixed;sketch=0;html=1;dashed=0;whitespace=wrap;fillColor=#2875E2;strokeColor=#ffffff;points=[[0.005,0.63,0],[0.1,0.2,0],[0.9,0.2,0],[0.5,0,0],[0.995,0.63,0],[0.72,0.99,0],[0.5,1,0],[0.28,0.99,0]];shape=mxgraph.kubernetes.icon2;kubernetesLabel=1;prIcon=control_plane" parent="vf9TmU0PU9OOiWveSIoE-3" vertex="1">
          <mxGeometry x="820" y="250" width="50" height="48" as="geometry" />
        </mxCell>
        <mxCell id="vf9TmU0PU9OOiWveSIoE-41" value="" style="aspect=fixed;sketch=0;html=1;dashed=0;whitespace=wrap;fillColor=#2875E2;strokeColor=#ffffff;points=[[0.005,0.63,0],[0.1,0.2,0],[0.9,0.2,0],[0.5,0,0],[0.995,0.63,0],[0.72,0.99,0],[0.5,1,0],[0.28,0.99,0]];shape=mxgraph.kubernetes.icon2;kubernetesLabel=1;prIcon=control_plane" parent="vf9TmU0PU9OOiWveSIoE-3" vertex="1">
          <mxGeometry x="1260" y="250" width="50" height="48" as="geometry" />
        </mxCell>
        <mxCell id="aqufaVc2B7-pRiZ18ils-19" style="edgeStyle=orthogonalEdgeStyle;shape=connector;rounded=0;sketch=1;jiggle=2;curveFitting=1;jumpStyle=arc;jumpSize=10;orthogonalLoop=1;jettySize=auto;html=1;exitX=1;exitY=0.5;exitDx=0;exitDy=0;entryX=0;entryY=0.5;entryDx=0;entryDy=0;labelBackgroundColor=default;strokeColor=#6C8EBF;align=center;verticalAlign=middle;fontFamily=Helvetica;fontSize=11;fontColor=default;endArrow=block;endFill=1;" edge="1" parent="vf9TmU0PU9OOiWveSIoE-3" source="vf9TmU0PU9OOiWveSIoE-43" target="aqufaVc2B7-pRiZ18ils-12">
          <mxGeometry relative="1" as="geometry" />
        </mxCell>
        <mxCell id="vf9TmU0PU9OOiWveSIoE-43" value="Client (kubectl)" style="strokeColor=#dddddd;shadow=1;strokeWidth=1;rounded=1;absoluteArcSize=1;arcSize=2;labelPosition=center;verticalLabelPosition=middle;align=center;verticalAlign=bottom;spacingLeft=0;fontColor=#999999;fontSize=12;whiteSpace=wrap;spacingBottom=2;html=1;sketch=1;curveFitting=1;jiggle=2;" parent="vf9TmU0PU9OOiWveSIoE-3" vertex="1">
          <mxGeometry x="240" y="-170" width="70" height="100" as="geometry" />
        </mxCell>
        <mxCell id="vf9TmU0PU9OOiWveSIoE-44" value="" style="dashed=0;connectable=0;html=1;fillColor=#757575;strokeColor=none;shape=mxgraph.gcp2.desktop;part=1;fillStyle=auto;" parent="vf9TmU0PU9OOiWveSIoE-43" vertex="1">
          <mxGeometry x="0.5" width="50" height="45" relative="1" as="geometry">
            <mxPoint x="-25" y="12.5" as="offset" />
          </mxGeometry>
        </mxCell>
        <mxCell id="vf9TmU0PU9OOiWveSIoE-46" value="" style="aspect=fixed;sketch=0;html=1;dashed=0;whitespace=wrap;fillColor=#2875E2;strokeColor=#ffffff;points=[[0.005,0.63,0],[0.1,0.2,0],[0.9,0.2,0],[0.5,0,0],[0.995,0.63,0],[0.72,0.99,0],[0.5,1,0],[0.28,0.99,0]];shape=mxgraph.kubernetes.icon2;kubernetesLabel=1;prIcon=node" parent="vf9TmU0PU9OOiWveSIoE-3" vertex="1">
          <mxGeometry x="479.99" y="-390" width="50" height="48" as="geometry" />
        </mxCell>
        <mxCell id="vf9TmU0PU9OOiWveSIoE-47" value="kubelet" style="rounded=0;whiteSpace=wrap;html=1;fillColor=#dae8fc;strokeColor=#6c8ebf;sketch=1;curveFitting=1;jiggle=2;" parent="vf9TmU0PU9OOiWveSIoE-3" vertex="1">
          <mxGeometry x="349.99" y="-290" width="140" height="30" as="geometry" />
        </mxCell>
        <mxCell id="vf9TmU0PU9OOiWveSIoE-48" value="kube-proxy" style="rounded=0;whiteSpace=wrap;html=1;fillColor=#dae8fc;strokeColor=#6c8ebf;sketch=1;curveFitting=1;jiggle=2;" parent="vf9TmU0PU9OOiWveSIoE-3" vertex="1">
          <mxGeometry x="349.99" y="-320" width="140" height="30" as="geometry" />
        </mxCell>
        <mxCell id="aqufaVc2B7-pRiZ18ils-16" style="edgeStyle=orthogonalEdgeStyle;shape=connector;rounded=0;sketch=1;jiggle=2;curveFitting=1;jumpStyle=arc;jumpSize=10;orthogonalLoop=1;jettySize=auto;html=1;exitX=0.5;exitY=1;exitDx=0;exitDy=0;entryX=0.25;entryY=0;entryDx=0;entryDy=0;labelBackgroundColor=default;strokeColor=#6C8EBF;align=center;verticalAlign=middle;fontFamily=Helvetica;fontSize=11;fontColor=default;endArrow=block;endFill=1;" edge="1" parent="vf9TmU0PU9OOiWveSIoE-3" source="vf9TmU0PU9OOiWveSIoE-49" target="aqufaVc2B7-pRiZ18ils-12">
          <mxGeometry relative="1" as="geometry" />
        </mxCell>
        <mxCell id="vf9TmU0PU9OOiWveSIoE-49" value="containerd" style="rounded=0;whiteSpace=wrap;html=1;fillColor=#bac8d3;strokeColor=#23445d;sketch=1;curveFitting=1;jiggle=2;shadow=0;" parent="vf9TmU0PU9OOiWveSIoE-3" vertex="1">
          <mxGeometry x="349.99" y="-260" width="140" height="30" as="geometry" />
        </mxCell>
        <mxCell id="vf9TmU0PU9OOiWveSIoE-50" value="Worker node&lt;br&gt;&lt;span style=&quot;font-weight: normal;&quot;&gt;172.16.0.202&lt;/span&gt;" style="rounded=1;whiteSpace=wrap;html=1;fillColor=#f5f5f5;fontColor=#333333;strokeColor=#666666;align=left;verticalAlign=top;fontStyle=1;fontSize=18;spacingTop=5;spacing=0;spacingLeft=10;arcSize=3;sketch=1;curveFitting=1;jiggle=2;" parent="vf9TmU0PU9OOiWveSIoE-3" vertex="1">
          <mxGeometry x="579.99" y="-400" width="240" height="170" as="geometry" />
        </mxCell>
        <mxCell id="vf9TmU0PU9OOiWveSIoE-51" value="" style="aspect=fixed;sketch=0;html=1;dashed=0;whitespace=wrap;fillColor=#2875E2;strokeColor=#ffffff;points=[[0.005,0.63,0],[0.1,0.2,0],[0.9,0.2,0],[0.5,0,0],[0.995,0.63,0],[0.72,0.99,0],[0.5,1,0],[0.28,0.99,0]];shape=mxgraph.kubernetes.icon2;kubernetesLabel=1;prIcon=node" parent="vf9TmU0PU9OOiWveSIoE-3" vertex="1">
          <mxGeometry x="759.99" y="-390" width="50" height="48" as="geometry" />
        </mxCell>
        <mxCell id="vf9TmU0PU9OOiWveSIoE-52" value="kubelet" style="rounded=0;whiteSpace=wrap;html=1;fillColor=#dae8fc;strokeColor=#6c8ebf;sketch=1;curveFitting=1;jiggle=2;" parent="vf9TmU0PU9OOiWveSIoE-3" vertex="1">
          <mxGeometry x="629.99" y="-290" width="140" height="30" as="geometry" />
        </mxCell>
        <mxCell id="vf9TmU0PU9OOiWveSIoE-53" value="kube-proxy" style="rounded=0;whiteSpace=wrap;html=1;fillColor=#dae8fc;strokeColor=#6c8ebf;sketch=1;curveFitting=1;jiggle=2;" parent="vf9TmU0PU9OOiWveSIoE-3" vertex="1">
          <mxGeometry x="629.99" y="-320" width="140" height="30" as="geometry" />
        </mxCell>
        <mxCell id="aqufaVc2B7-pRiZ18ils-17" style="edgeStyle=orthogonalEdgeStyle;shape=connector;rounded=0;sketch=1;jiggle=2;curveFitting=1;jumpStyle=arc;jumpSize=10;orthogonalLoop=1;jettySize=auto;html=1;exitX=0.5;exitY=1;exitDx=0;exitDy=0;entryX=0.5;entryY=0;entryDx=0;entryDy=0;labelBackgroundColor=default;strokeColor=#6C8EBF;align=center;verticalAlign=middle;fontFamily=Helvetica;fontSize=11;fontColor=default;endArrow=block;endFill=1;" edge="1" parent="vf9TmU0PU9OOiWveSIoE-3" source="vf9TmU0PU9OOiWveSIoE-54" target="aqufaVc2B7-pRiZ18ils-12">
          <mxGeometry relative="1" as="geometry" />
        </mxCell>
        <mxCell id="vf9TmU0PU9OOiWveSIoE-54" value="containerd" style="rounded=0;whiteSpace=wrap;html=1;fillColor=#bac8d3;strokeColor=#23445d;sketch=1;curveFitting=1;jiggle=2;" parent="vf9TmU0PU9OOiWveSIoE-3" vertex="1">
          <mxGeometry x="629.99" y="-260" width="140" height="30" as="geometry" />
        </mxCell>
        <mxCell id="vf9TmU0PU9OOiWveSIoE-55" value="Worker node&lt;br&gt;&lt;span style=&quot;font-weight: normal;&quot;&gt;172.16.0.203&lt;/span&gt;" style="rounded=1;whiteSpace=wrap;html=1;fillColor=#f5f5f5;fontColor=#333333;strokeColor=#666666;align=left;verticalAlign=top;fontStyle=1;fontSize=18;spacingTop=5;spacing=0;spacingLeft=10;arcSize=3;sketch=1;curveFitting=1;jiggle=2;" parent="vf9TmU0PU9OOiWveSIoE-3" vertex="1">
          <mxGeometry x="859.99" y="-400" width="240" height="170" as="geometry" />
        </mxCell>
        <mxCell id="vf9TmU0PU9OOiWveSIoE-56" value="" style="aspect=fixed;sketch=0;html=1;dashed=0;whitespace=wrap;fillColor=#2875E2;strokeColor=#ffffff;points=[[0.005,0.63,0],[0.1,0.2,0],[0.9,0.2,0],[0.5,0,0],[0.995,0.63,0],[0.72,0.99,0],[0.5,1,0],[0.28,0.99,0]];shape=mxgraph.kubernetes.icon2;kubernetesLabel=1;prIcon=node" parent="vf9TmU0PU9OOiWveSIoE-3" vertex="1">
          <mxGeometry x="1039.99" y="-390" width="50" height="48" as="geometry" />
        </mxCell>
        <mxCell id="vf9TmU0PU9OOiWveSIoE-57" value="kubelet" style="rounded=0;whiteSpace=wrap;html=1;fillColor=#dae8fc;strokeColor=#6c8ebf;sketch=1;curveFitting=1;jiggle=2;" parent="vf9TmU0PU9OOiWveSIoE-3" vertex="1">
          <mxGeometry x="909.99" y="-290" width="140" height="30" as="geometry" />
        </mxCell>
        <mxCell id="vf9TmU0PU9OOiWveSIoE-58" value="kube-proxy" style="rounded=0;whiteSpace=wrap;html=1;fillColor=#dae8fc;strokeColor=#6c8ebf;sketch=1;curveFitting=1;jiggle=2;" parent="vf9TmU0PU9OOiWveSIoE-3" vertex="1">
          <mxGeometry x="909.99" y="-320" width="140" height="30" as="geometry" />
        </mxCell>
        <mxCell id="aqufaVc2B7-pRiZ18ils-18" style="edgeStyle=orthogonalEdgeStyle;shape=connector;rounded=0;sketch=1;jiggle=2;curveFitting=1;jumpStyle=arc;jumpSize=10;orthogonalLoop=1;jettySize=auto;html=1;exitX=0.5;exitY=1;exitDx=0;exitDy=0;entryX=0.75;entryY=0;entryDx=0;entryDy=0;labelBackgroundColor=default;strokeColor=#6C8EBF;align=center;verticalAlign=middle;fontFamily=Helvetica;fontSize=11;fontColor=default;endArrow=block;endFill=1;" edge="1" parent="vf9TmU0PU9OOiWveSIoE-3" source="vf9TmU0PU9OOiWveSIoE-59" target="aqufaVc2B7-pRiZ18ils-12">
          <mxGeometry relative="1" as="geometry" />
        </mxCell>
        <mxCell id="vf9TmU0PU9OOiWveSIoE-59" value="containerd" style="rounded=0;whiteSpace=wrap;html=1;fillColor=#bac8d3;strokeColor=#23445d;sketch=1;curveFitting=1;jiggle=2;" parent="vf9TmU0PU9OOiWveSIoE-3" vertex="1">
          <mxGeometry x="909.99" y="-260" width="140" height="30" as="geometry" />
        </mxCell>
        <mxCell id="vf9TmU0PU9OOiWveSIoE-60" value="etcd" style="rounded=0;whiteSpace=wrap;html=1;fillColor=#97D077;strokeColor=default;fontSize=20;sketch=1;curveFitting=1;jiggle=2;" parent="vf9TmU0PU9OOiWveSIoE-3" vertex="1">
          <mxGeometry x="120" y="500" width="280" height="60" as="geometry" />
        </mxCell>
        <mxCell id="vf9TmU0PU9OOiWveSIoE-61" value="" style="strokeWidth=2;html=1;shape=mxgraph.flowchart.database;whiteSpace=wrap;" parent="vf9TmU0PU9OOiWveSIoE-3" vertex="1">
          <mxGeometry x="160" y="510" width="30" height="40" as="geometry" />
        </mxCell>
        <mxCell id="vf9TmU0PU9OOiWveSIoE-62" value="etcd" style="rounded=0;whiteSpace=wrap;html=1;fillColor=#97d077;strokeColor=default;fontSize=20;sketch=1;curveFitting=1;jiggle=2;" parent="vf9TmU0PU9OOiWveSIoE-3" vertex="1">
          <mxGeometry x="560" y="500" width="280" height="60" as="geometry" />
        </mxCell>
        <mxCell id="vf9TmU0PU9OOiWveSIoE-63" value="" style="strokeWidth=2;html=1;shape=mxgraph.flowchart.database;whiteSpace=wrap;" parent="vf9TmU0PU9OOiWveSIoE-3" vertex="1">
          <mxGeometry x="600" y="510" width="30" height="40" as="geometry" />
        </mxCell>
        <mxCell id="vf9TmU0PU9OOiWveSIoE-64" value="etcd" style="rounded=0;whiteSpace=wrap;html=1;fillColor=#97D077;strokeColor=default;fontSize=20;sketch=1;curveFitting=1;jiggle=2;" parent="vf9TmU0PU9OOiWveSIoE-3" vertex="1">
          <mxGeometry x="1000" y="500" width="280" height="60" as="geometry" />
        </mxCell>
        <mxCell id="vf9TmU0PU9OOiWveSIoE-65" value="" style="strokeWidth=2;html=1;shape=mxgraph.flowchart.database;whiteSpace=wrap;" parent="vf9TmU0PU9OOiWveSIoE-3" vertex="1">
          <mxGeometry x="1040" y="510" width="30" height="40" as="geometry" />
        </mxCell>
        <mxCell id="niVe1LXyHE5a3hvr58ms-5" value="Switch to LB2 when LB1 is down" style="text;html=1;strokeColor=none;fillColor=none;align=left;verticalAlign=middle;whiteSpace=wrap;rounded=0;fontSize=14;fontColor=#999999;" parent="vf9TmU0PU9OOiWveSIoE-3" vertex="1">
          <mxGeometry x="800" y="-80" width="230" height="30" as="geometry" />
        </mxCell>
        <mxCell id="aqufaVc2B7-pRiZ18ils-11" value="" style="shape=mxgraph.signs.healthcare.heart_1;html=1;pointerEvents=1;fillColor=#F5225A;strokeColor=#FFFFFF;verticalLabelPosition=bottom;verticalAlign=top;align=center;fontColor=#333333;strokeWidth=4;" vertex="1" parent="vf9TmU0PU9OOiWveSIoE-3">
          <mxGeometry x="678.08" y="60" width="43.83" height="40" as="geometry" />
        </mxCell>
        <mxCell id="aqufaVc2B7-pRiZ18ils-13" style="edgeStyle=orthogonalEdgeStyle;rounded=0;orthogonalLoop=1;jettySize=auto;html=1;exitX=0.5;exitY=1;exitDx=0;exitDy=0;entryX=0.5;entryY=0;entryDx=0;entryDy=0;sketch=1;curveFitting=1;jiggle=2;endArrow=block;endFill=1;jumpStyle=arc;jumpSize=10;strokeColor=#6C8EBF;" edge="1" parent="vf9TmU0PU9OOiWveSIoE-3" source="aqufaVc2B7-pRiZ18ils-12" target="vf9TmU0PU9OOiWveSIoE-27">
          <mxGeometry relative="1" as="geometry" />
        </mxCell>
        <mxCell id="aqufaVc2B7-pRiZ18ils-12" value="VIP 172.16.0.100" style="rounded=1;whiteSpace=wrap;html=1;fillColor=#bac8d3;strokeColor=#23445d;sketch=1;curveFitting=1;jiggle=2;shadow=0;fontStyle=1;fontSize=18;" vertex="1" parent="vf9TmU0PU9OOiWveSIoE-3">
          <mxGeometry x="629.99" y="-160" width="140" height="80" as="geometry" />
        </mxCell>
        <mxCell id="aqufaVc2B7-pRiZ18ils-20" value="keepalived" style="rounded=0;whiteSpace=wrap;html=1;fillColor=#FFF9A8;strokeColor=#d6b656;sketch=1;curveFitting=1;jiggle=2;" vertex="1" parent="vf9TmU0PU9OOiWveSIoE-3">
          <mxGeometry x="800" y="20" width="100" height="80" as="geometry" />
        </mxCell>
      </root>
    </mxGraphModel>
  </diagram>
</mxfile>
